<svg width="100" height="100" viewBox="0 0 100 100" fill="none" xmlns="http://www.w3.org/2000/svg">
<g id="analytics">
<g id="analytics_2">
<path id="Vector" d="M95.3328 87.4853C95.3698 94.3511 89.8328 99.9416 82.9712 99.9787C82.4611 99.9828 81.9469 99.954 81.4409 99.8923C75.0729 98.9502 70.408 93.4091 70.5644 86.9752V13.0025C70.4122 6.56047 75.0894 1.0193 81.4615 0.0854891C88.2778 -0.71257 94.4525 4.16629 95.2505 10.9827C95.3081 11.4846 95.3369 11.9864 95.3328 12.4924V87.4853Z" fill="#F9AB00"/>
<path id="Vector_2" d="M17.3864 75.2253C24.2274 75.2253 29.7727 80.7706 29.7727 87.6117C29.7727 94.4528 24.2274 99.998 17.3864 99.998C10.5453 99.998 5 94.4528 5 87.6117C5 80.7706 10.5453 75.2253 17.3864 75.2253ZM49.9751 37.6877C43.1011 38.0662 37.7698 43.8295 37.9302 50.7117V83.9793C37.9302 93.0088 41.904 98.4883 47.7249 99.6566C54.4426 101.018 60.9875 96.6783 62.3491 89.9606C62.5178 89.1378 62.6001 88.3028 62.596 87.4636V50.1358C62.6083 43.27 57.0548 37.6959 50.189 37.6836C50.1191 37.6836 50.0451 37.6836 49.9751 37.6877Z" fill="#E37400"/>
</g>
</g>
</svg>
