<svg width="100" height="100" viewBox="0 0 100 100" fill="none" xmlns="http://www.w3.org/2000/svg">
<g id="figma">
<g id="figma_2">
<path id="Vector" d="M33.3332 99.9993C42.5332 99.9993 49.9998 92.5326 49.9998 83.3327V66.666H33.3332C24.1332 66.666 16.6665 74.1327 16.6665 83.3327C16.6665 92.5326 24.1332 99.9993 33.3332 99.9993Z" fill="#0ACF83"/>
<path id="Vector_2" d="M16.6665 50.0006C16.6665 40.8006 24.1332 33.334 33.3332 33.334H49.9998V66.6673H33.3332C24.1332 66.6673 16.6665 59.2006 16.6665 50.0006Z" fill="#A259FF"/>
<path id="Vector_3" d="M16.6665 16.6667C16.6665 7.46666 24.1332 0 33.3332 0H49.9998V33.3333H33.3332C24.1332 33.3333 16.6665 25.8667 16.6665 16.6667Z" fill="#F24E1E"/>
<path id="Vector_4" d="M50 0H66.6667C75.8667 0 83.3334 7.46666 83.3334 16.6667C83.3334 25.8667 75.8667 33.3333 66.6667 33.3333H50V0Z" fill="#FF7262"/>
<path id="Vector_5" d="M83.3334 50.0006C83.3334 59.2006 75.8667 66.6673 66.6667 66.6673C57.4667 66.6673 50 59.2006 50 50.0006C50 40.8006 57.4667 33.334 66.6667 33.334C75.8667 33.334 83.3334 40.8006 83.3334 50.0006Z" fill="#1ABCFE"/>
</g>
</g>
</svg>
