<svg width="100" height="100" viewBox="0 0 100 100" fill="none" xmlns="http://www.w3.org/2000/svg">
<g clip-path="url(#clip0_464_1513)">
<mask id="mask0_464_1513" style="mask-type:luminance" maskUnits="userSpaceOnUse" x="0" y="0" width="100" height="100">
<path d="M0 0H100V100H0V0Z" fill="white"/>
</mask>
<g mask="url(#mask0_464_1513)">
<g filter="url(#filter0_i_464_1513)">
<path fill-rule="evenodd" clip-rule="evenodd" d="M50 0C77.6125 0 100 22.3875 100 50C100 77.6125 77.6125 100 50 100C22.3875 100 0 77.6125 0 50C0 22.3875 22.3875 0 50 0ZM50 15.1125C40.7473 15.1125 31.8735 18.7881 25.3308 25.3308C18.7881 31.8735 15.1125 40.7473 15.1125 50C15.1125 59.2527 18.7881 68.1265 25.3308 74.6692C31.8735 81.2119 40.7473 84.8875 50 84.8875C59.2527 84.8875 68.1265 81.2119 74.6692 74.6692C81.2119 68.1265 84.8875 59.2527 84.8875 50C84.8875 40.7473 81.2119 31.8735 74.6692 25.3308C68.1265 18.7881 59.2527 15.1125 50 15.1125Z" fill="url(#paint0_linear_464_1513)"/>
</g>
</g>
</g>
<defs>
<filter id="filter0_i_464_1513" x="0" y="0" width="100" height="100" filterUnits="userSpaceOnUse" color-interpolation-filters="sRGB">
<feFlood flood-opacity="0" result="BackgroundImageFix"/>
<feBlend mode="normal" in="SourceGraphic" in2="BackgroundImageFix" result="shape"/>
<feColorMatrix in="SourceAlpha" type="matrix" values="0 0 0 0 0 0 0 0 0 0 0 0 0 0 0 0 0 0 127 0" result="hardAlpha"/>
<feOffset/>
<feGaussianBlur stdDeviation="3.125"/>
<feComposite in2="hardAlpha" operator="arithmetic" k2="-1" k3="1"/>
<feColorMatrix type="matrix" values="0 0 0 0 1 0 0 0 0 1 0 0 0 0 1 0 0 0 0.5 0"/>
<feBlend mode="normal" in2="shape" result="effect1_innerShadow_464_1513"/>
</filter>
<linearGradient id="paint0_linear_464_1513" x1="100" y1="0" x2="0" y2="100" gradientUnits="userSpaceOnUse">
<stop offset="0.13" stop-color="#FF97E3"/>
<stop offset="0.18" stop-color="#D14FE1"/>
<stop offset="0.338" stop-color="#0050E2"/>
<stop offset="0.666" stop-color="#0050E2"/>
<stop offset="0.809" stop-color="#00DDF4"/>
<stop offset="0.858" stop-color="#23F8CC"/>
</linearGradient>
<clipPath id="clip0_464_1513">
<rect width="100" height="100" fill="white"/>
</clipPath>
</defs>
</svg>
