<svg width="100" height="100" viewBox="0 0 100 100" fill="none" xmlns="http://www.w3.org/2000/svg">
<g id="mongodb">
<g id="mongodb_2">
<path id="Vector" d="M50.1455 0.273438L52.8141 5.28556C53.414 6.21049 54.064 7.02918 54.8295 7.79163C57.074 10.0081 59.1661 12.3737 61.0916 14.8723C65.6131 20.8094 68.6629 27.4027 70.8409 34.5334C72.1471 38.8893 72.8564 43.3577 72.9095 47.8761C73.1282 61.3845 68.4973 72.9836 59.1605 82.6235C57.6417 84.1522 56.001 85.5547 54.2546 86.817C53.3296 86.817 52.8922 86.1077 52.511 85.4546C51.8167 84.2436 51.3547 82.9136 51.1486 81.533C50.8205 79.8987 50.6048 78.2645 50.7111 76.5771V75.8147C50.6361 75.6522 49.8205 0.657784 50.1455 0.273438Z" fill="#599636"/>
<path id="Vector_2" d="M50.1455 0.107501C50.0361 -0.111232 49.9268 0.0543804 49.8174 0.160623C49.8705 1.25429 49.4893 2.22922 48.8925 3.1604C48.2363 4.08533 47.3676 4.79466 46.4958 5.5571C41.6524 9.75054 37.8401 14.8158 34.7872 20.481C30.725 28.1054 28.6314 36.2767 28.0377 44.8792C27.7659 47.9821 29.0189 58.9313 29.997 62.0904C32.6655 70.4773 37.4589 77.5049 43.6679 83.6045C45.1927 85.0731 46.8239 86.4355 48.5113 87.7448C49.0018 87.7448 49.055 87.3073 49.1675 86.9823C49.3825 86.287 49.5465 85.5768 49.658 84.8575L50.7517 76.6893L50.1455 0.107501Z" fill="#6CAC48"/>
<path id="Vector_3" d="M52.814 90.1359C52.9234 88.886 53.5234 87.8486 54.1765 86.8143C53.5203 86.5425 53.0328 86.0019 52.6516 85.3988C52.3228 84.8278 52.0507 84.226 51.8391 83.6021C51.0767 81.3147 50.9142 78.9149 50.6955 76.5776V75.1621C50.4236 75.3808 50.3673 77.2307 50.3673 77.5057C50.2083 79.976 49.8805 82.4326 49.3862 84.8582C49.2237 85.8394 49.1143 86.8174 48.5112 87.6892C48.5112 87.7986 48.5112 87.908 48.5644 88.0705C49.5455 90.9577 49.8143 93.8981 49.9799 96.8948V97.9884C49.9799 99.2946 49.9268 99.0196 51.0111 99.4571C51.4485 99.6196 51.936 99.6758 52.3735 100.001C52.7016 100.001 52.7547 99.7289 52.7547 99.5102L52.5922 97.7135V92.7014C52.5391 91.8264 52.7016 90.9577 52.8109 90.1391L52.814 90.1359Z" fill="#C2BFBF"/>
</g>
</g>
</svg>
