<svg width="100" height="100" viewBox="0 0 100 100" fill="none" xmlns="http://www.w3.org/2000/svg">
<g id="vscode">
<g id="vscode_2">
<path id="Vector" d="M0.951416 35.4981C0.951416 35.4981 -1.48421 33.7424 1.43854 31.3981L8.24814 25.3091C8.24814 25.3091 10.1966 23.2591 12.2568 25.0452L75.0959 72.6211V95.4348C75.0959 95.4348 75.0655 99.0173 70.4682 98.6215L0.951416 35.4981Z" fill="#2489CA"/>
<path id="Vector_2" d="M17.1486 50.2031L0.951623 64.9285C0.951623 64.9285 -0.712723 66.1666 0.951623 68.379L8.47163 75.219C8.47163 75.219 10.2578 77.1371 12.8963 74.9552L30.0675 61.9347L17.1486 50.2031Z" fill="#1070B3"/>
<path id="Vector_3" d="M45.5844 50.326L75.2889 27.6442L75.0961 4.95223C75.0961 4.95223 73.8275 -0.000226855 69.5956 2.57748L30.0674 38.5538L45.5844 50.326Z" fill="#0877B9"/>
<path id="Vector_4" d="M70.4685 98.6524C72.1937 100.418 74.2843 99.8397 74.2843 99.8397L97.4329 88.4329C100.396 86.4133 99.9801 83.9067 99.9801 83.9067V15.7902C99.9801 12.7964 96.9153 11.7613 96.9153 11.7613L76.8518 2.08978C72.4677 -0.619855 69.5957 2.57691 69.5957 2.57691C69.5957 2.57691 73.2897 -0.081986 75.0962 4.95165V95.0192C75.0962 95.6383 74.9642 96.2472 74.7004 96.7952C74.1726 97.8608 73.0259 98.8553 70.2756 98.4392L70.4685 98.6524Z" fill="#3C99D4"/>
</g>
</g>
</svg>
